<mxfile host="app.diagrams.net" modified="2022-03-02T00:39:20.938Z" agent="5.0 (Macintosh; Intel Mac OS X 10_15_7) AppleWebKit/537.36 (KHTML, like Gecko) Chrome/98.0.4758.109 Safari/537.36" etag="_vLxCupfestyhG9d-UtI" version="16.6.4" type="github">
  <diagram id="Y7qqf7zW7CD9g80kOgZn" name="Page-1">
    <mxGraphModel dx="1038" dy="590" grid="0" gridSize="10" guides="1" tooltips="1" connect="1" arrows="1" fold="1" page="1" pageScale="1" pageWidth="1169" pageHeight="827" math="0" shadow="0">
      <root>
        <mxCell id="0" />
        <mxCell id="1" parent="0" />
        <mxCell id="CugIGB6BrDYNaWaElfJB-1" value="wms-v2" style="swimlane;startSize=23;strokeColor=#EC4C2C;fontColor=#EC4C2C;strokeWidth=2;" parent="1" vertex="1">
          <mxGeometry x="560" y="210" width="410" height="360" as="geometry" />
        </mxCell>
        <mxCell id="hVtpO9R9rN_pp_dcE1at-15" value="expired / update event" style="edgeStyle=orthogonalEdgeStyle;rounded=0;orthogonalLoop=1;jettySize=auto;html=1;exitX=0.25;exitY=0;exitDx=0;exitDy=0;entryX=0;entryY=0.5;entryDx=0;entryDy=0;fontColor=#000000;fontStyle=1" edge="1" parent="CugIGB6BrDYNaWaElfJB-1" source="CugIGB6BrDYNaWaElfJB-6" target="XSNwB8-XGPKTRtaIZl3u-3">
          <mxGeometry x="-0.4884" relative="1" as="geometry">
            <mxPoint as="offset" />
          </mxGeometry>
        </mxCell>
        <mxCell id="CugIGB6BrDYNaWaElfJB-6" value="Apollo client cache" style="rounded=1;whiteSpace=wrap;html=1;" parent="CugIGB6BrDYNaWaElfJB-1" vertex="1">
          <mxGeometry x="40" y="257.5" width="180" height="75" as="geometry" />
        </mxCell>
        <mxCell id="eDXPJuI8IlJnD9qlIi3Z-2" style="edgeStyle=orthogonalEdgeStyle;rounded=0;orthogonalLoop=1;jettySize=auto;html=1;entryX=0.5;entryY=0;entryDx=0;entryDy=0;" parent="CugIGB6BrDYNaWaElfJB-1" source="CugIGB6BrDYNaWaElfJB-8" target="XSNwB8-XGPKTRtaIZl3u-3" edge="1">
          <mxGeometry relative="1" as="geometry" />
        </mxCell>
        <mxCell id="CugIGB6BrDYNaWaElfJB-8" value="open-api" style="ellipse;whiteSpace=wrap;html=1;" parent="CugIGB6BrDYNaWaElfJB-1" vertex="1">
          <mxGeometry x="145" y="50" width="120" height="55" as="geometry" />
        </mxCell>
        <mxCell id="hVtpO9R9rN_pp_dcE1at-11" style="edgeStyle=orthogonalEdgeStyle;rounded=0;orthogonalLoop=1;jettySize=auto;html=1;exitX=1;exitY=0.5;exitDx=0;exitDy=0;entryX=0.667;entryY=0;entryDx=0;entryDy=0;entryPerimeter=0;fontColor=#000000;" edge="1" parent="CugIGB6BrDYNaWaElfJB-1" source="XSNwB8-XGPKTRtaIZl3u-3" target="hVtpO9R9rN_pp_dcE1at-2">
          <mxGeometry relative="1" as="geometry" />
        </mxCell>
        <mxCell id="hVtpO9R9rN_pp_dcE1at-16" value="apollo unavailable" style="edgeLabel;html=1;align=center;verticalAlign=middle;resizable=0;points=[];fontColor=#000000;fontStyle=1" vertex="1" connectable="0" parent="hVtpO9R9rN_pp_dcE1at-11">
          <mxGeometry x="0.184" y="1" relative="1" as="geometry">
            <mxPoint as="offset" />
          </mxGeometry>
        </mxCell>
        <mxCell id="XSNwB8-XGPKTRtaIZl3u-3" value="JwtApolloCache" style="rounded=1;whiteSpace=wrap;html=1;" parent="CugIGB6BrDYNaWaElfJB-1" vertex="1">
          <mxGeometry x="115" y="150" width="180" height="60" as="geometry" />
        </mxCell>
        <mxCell id="hVtpO9R9rN_pp_dcE1at-2" value="chassis.yaml" style="shape=card;whiteSpace=wrap;html=1;size=20;" vertex="1" parent="CugIGB6BrDYNaWaElfJB-1">
          <mxGeometry x="250" y="270" width="120" height="50" as="geometry" />
        </mxCell>
        <mxCell id="CugIGB6BrDYNaWaElfJB-12" style="edgeStyle=orthogonalEdgeStyle;rounded=0;orthogonalLoop=1;jettySize=auto;html=1;entryX=0;entryY=0.5;entryDx=0;entryDy=0;" parent="1" source="CugIGB6BrDYNaWaElfJB-10" target="CugIGB6BrDYNaWaElfJB-8" edge="1">
          <mxGeometry relative="1" as="geometry" />
        </mxCell>
        <mxCell id="CugIGB6BrDYNaWaElfJB-13" value="&amp;nbsp;/api/create&amp;nbsp;" style="edgeLabel;html=1;align=center;verticalAlign=middle;resizable=0;points=[];" parent="CugIGB6BrDYNaWaElfJB-12" vertex="1" connectable="0">
          <mxGeometry x="-0.2571" relative="1" as="geometry">
            <mxPoint as="offset" />
          </mxGeometry>
        </mxCell>
        <mxCell id="hVtpO9R9rN_pp_dcE1at-17" style="edgeStyle=orthogonalEdgeStyle;orthogonalLoop=1;jettySize=auto;html=1;fontColor=#000000;curved=1;dashed=1;dashPattern=1 1;" edge="1" parent="1" source="CugIGB6BrDYNaWaElfJB-10" target="hVtpO9R9rN_pp_dcE1at-6">
          <mxGeometry relative="1" as="geometry" />
        </mxCell>
        <mxCell id="CugIGB6BrDYNaWaElfJB-10" value="user3" style="shape=umlActor;verticalLabelPosition=bottom;verticalAlign=top;html=1;outlineConnect=0;" parent="1" vertex="1">
          <mxGeometry x="410" y="258" width="30" height="60" as="geometry" />
        </mxCell>
        <mxCell id="hVtpO9R9rN_pp_dcE1at-9" style="edgeStyle=orthogonalEdgeStyle;rounded=0;orthogonalLoop=1;jettySize=auto;html=1;exitX=0.5;exitY=0;exitDx=0;exitDy=0;fontColor=#EC4C2C;" edge="1" parent="1" source="hVtpO9R9rN_pp_dcE1at-3" target="CugIGB6BrDYNaWaElfJB-6">
          <mxGeometry relative="1" as="geometry" />
        </mxCell>
        <mxCell id="hVtpO9R9rN_pp_dcE1at-10" value="&lt;font color=&quot;#000000&quot;&gt;refresh interval / update event&lt;/font&gt;" style="edgeLabel;html=1;align=center;verticalAlign=middle;resizable=0;points=[];fontColor=#EC4C2C;horizontal=1;fontStyle=1" vertex="1" connectable="0" parent="hVtpO9R9rN_pp_dcE1at-9">
          <mxGeometry x="-0.2857" y="-1" relative="1" as="geometry">
            <mxPoint x="1" as="offset" />
          </mxGeometry>
        </mxCell>
        <mxCell id="hVtpO9R9rN_pp_dcE1at-3" value="apollo server" style="swimlane;fontStyle=0;childLayout=stackLayout;horizontal=1;startSize=30;horizontalStack=0;resizeParent=1;resizeParentMax=0;resizeLast=0;collapsible=1;marginBottom=0;strokeColor=#060083;strokeWidth=2;fontColor=#060083;" vertex="1" parent="1">
          <mxGeometry x="583" y="619" width="215" height="120" as="geometry" />
        </mxCell>
        <mxCell id="hVtpO9R9rN_pp_dcE1at-4" value="user1        [&quot;/api/create&quot;,&quot;/api/get&quot;]" style="text;strokeColor=none;fillColor=none;align=left;verticalAlign=middle;spacingLeft=4;spacingRight=4;overflow=hidden;points=[[0,0.5],[1,0.5]];portConstraint=eastwest;rotatable=0;fontColor=#060083;" vertex="1" parent="hVtpO9R9rN_pp_dcE1at-3">
          <mxGeometry y="30" width="215" height="30" as="geometry" />
        </mxCell>
        <mxCell id="hVtpO9R9rN_pp_dcE1at-5" value="user2        [&quot;/api/get&quot;]" style="text;strokeColor=none;fillColor=none;align=left;verticalAlign=middle;spacingLeft=4;spacingRight=4;overflow=hidden;points=[[0,0.5],[1,0.5]];portConstraint=eastwest;rotatable=0;fontColor=#060083;" vertex="1" parent="hVtpO9R9rN_pp_dcE1at-3">
          <mxGeometry y="60" width="215" height="30" as="geometry" />
        </mxCell>
        <mxCell id="hVtpO9R9rN_pp_dcE1at-6" value="user3        [&quot;/api/create&quot;]" style="text;strokeColor=none;fillColor=none;align=left;verticalAlign=middle;spacingLeft=4;spacingRight=4;overflow=hidden;points=[[0,0.5],[1,0.5]];portConstraint=eastwest;rotatable=0;fontColor=#060083;" vertex="1" parent="hVtpO9R9rN_pp_dcE1at-3">
          <mxGeometry y="90" width="215" height="30" as="geometry" />
        </mxCell>
      </root>
    </mxGraphModel>
  </diagram>
</mxfile>
